<svg width="1903" height="1955" viewBox="0 0 1903 1955" fill="none" xmlns="http://www.w3.org/2000/svg">
<path d="M1024.3 412.974C1024.3 412.974 1436.54 477.476 1405.28 1064.9C1405.16 1067.07 1452.94 1098.8 1456.68 1102.18C1490 1132.32 1517.95 1170.91 1530.18 1216.05C1573.7 1376.79 1418.09 1542.42 1292.25 1586.39C1245.25 1602.81 1195.56 1610.78 1145.78 1612.23C822.172 1621.65 393.729 1415.97 371.724 1014.29C370.936 999.874 370.742 985.446 371.113 971.052C373.063 894.782 391.471 820.502 419.214 751.534C419.202 751.536 599.305 304.808 1024.3 412.974Z" fill="#A47539"/>
<path opacity="0.3" d="M1209.49 1099.79C1209.49 1099.79 1274.89 1037.57 1325.51 1096.07Z" fill="#633B1D"/>
<path d="M599.741 1409.91C382.17 1518.96 184.564 1245.29 247.77 1091.5C288.089 993.407 405.75 985.812 473.964 1075.44C514.221 1128.34 546.806 1195.96 565.316 1260.63" fill="#A47539"/>
<path opacity="0.3" d="M420.424 1165.7C448.434 1194.21 470.958 1236.49 498.632 1260.08C493.503 1220.62 485.327 1178.48 466.157 1142.92C446.692 1106.8 411.308 1077.04 375.291 1079.48C330.655 1082.51 293.922 1134.51 289.215 1181.66C292.029 1153.44 348.76 1134.36 370.418 1137.04C404.354 1201 417.531 1327.03 417.531 1327.03C445.755 1255.69 434.296 1199.57 420.424 1165.7Z" fill="#633B1D"/>
<path fill-rule="evenodd" clip-rule="evenodd" d="M1066.47 1261.84C1066.47 1254.91 1072.08 1249.3 1079 1249.3H1367.33C1374.25 1249.3 1379.86 1254.91 1379.86 1261.84C1379.86 1268.77 1374.25 1274.38 1367.33 1274.38H1079C1072.08 1274.38 1066.47 1268.77 1066.47 1261.84Z" fill="#592125"/>
<path fill-rule="evenodd" clip-rule="evenodd" d="M1332.49 951.752C1344.7 957.365 1361.54 964.027 1378.1 967.911C1383.09 977.7 1385.93 989.359 1385.9 1000.11C1385.84 1025.06 1374.44 1051.87 1345.32 1048.81C1320.87 1046.24 1314.65 1014.39 1314.69 998.716C1314.74 979.557 1321.52 961.134 1332.49 951.752Z" fill="#0C0501"/>
<path fill-rule="evenodd" clip-rule="evenodd" d="M1001.28 976.084C1000.08 981.952 999.427 988.257 999.41 994.946C999.31 1033.99 1018.8 1054.47 1048.08 1062.24C1088.77 1068.41 1108.39 1038.18 1108.48 1000.95C1108.54 979.306 1099.48 957.953 1085.36 943.879C1067.8 957.315 1040.12 971.163 1001.28 976.084Z" fill="#0C0501"/>
<path d="M1091.06 804.296C1048.07 810.619 1009.12 839.796 989.541 880.113C983.228 893.112 986.195 911.673 999.679 919.81C1012.14 927.342 1029.8 925.251 1036.55 911.323C1038.57 907.148 1040.79 903.098 1043.26 899.21C1044.03 897.999 1046.44 895.517 1046.95 893.93C1047.35 893.432 1047.74 892.937 1048.16 892.445C1050.73 889.404 1053.44 886.505 1056.29 883.753C1057.93 882.178 1059.6 880.668 1061.31 879.196C1061.85 878.735 1062.4 878.285 1062.95 877.831C1064.6 876.977 1066.29 875.404 1067.74 874.468C1069.63 873.246 1071.54 872.093 1073.5 870.99C1076.92 869.067 1080.44 867.319 1084.03 865.768C1084.53 865.55 1085.03 865.348 1085.54 865.141C1087.55 864.516 1089.53 863.844 1091.57 863.287C1095.89 862.11 1100.29 861.238 1104.74 860.575C1118.63 858.537 1128.21 841.183 1124.07 826.773C1119.49 810.917 1105.94 802.112 1091.06 804.296Z" fill="#371A03"/>
<path d="M1405.58 875.477C1395.75 850.873 1377.02 831.616 1354.1 821.591C1347.91 818.887 1339.75 819.45 1333.62 822.484C1327.58 825.47 1321.52 831.897 1319.31 838.773C1317.03 845.912 1316.49 854.058 1319.57 860.909C1322.7 867.856 1327.53 872.99 1334.24 875.936C1335.34 876.416 1336.38 877.023 1337.46 877.562C1340.53 879.58 1343.43 881.845 1346.18 884.337C1349.18 887.704 1351.86 891.345 1354.24 895.262C1354.96 896.76 1355.75 898.222 1356.38 899.78C1359.08 906.515 1364.69 912.249 1371.05 914.807C1377.14 917.255 1385.51 917.218 1391.53 913.902C1397.78 910.472 1403.48 904.968 1405.84 897.614C1408.19 890.284 1408.43 882.603 1405.58 875.477Z" fill="#371A03"/>
<mask id="mask0_8_541" style="mask-type:alpha" maskUnits="userSpaceOnUse" x="1322" y="642" width="208" height="352">
<path d="M1406.01 993.392C1404.38 839.362 1370.08 725.809 1322.62 642.272C1379.66 642.272 1500.02 670.801 1525.13 784.915C1550.23 899.029 1456.18 971.447 1406.01 993.392Z" fill="#C4C4C4"/>
</mask>
<g mask="url(#mask0_8_541)">
<ellipse cx="1347.63" cy="827.498" rx="139.629" ry="139.508" fill="#1E0D01"/>
</g>
<path fill-rule="evenodd" clip-rule="evenodd" d="M1361.74 767.782C1322.52 767.782 1286.96 751.723 1260.94 725.66C1234.63 751.723 1198.67 767.782 1159.01 767.782C1109.05 767.782 1064.95 742.298 1038.64 703.433C1009.31 742.543 962.986 767.782 910.867 767.782C887.907 767.782 866.073 762.884 846.321 754.061C828.022 801.494 788.506 838.103 739.643 851.825C744.462 867.343 747.061 883.863 747.061 900.999C747.061 947.321 728.073 989.134 697.576 1018.84C694.914 1139.94 638.743 1202.75 603.984 1220.94C595.617 1227.73 560.056 1225.64 560.056 1225.64C549.391 1176.59 511.183 1085.15 435.431 1039.91C429.649 1040.55 423.776 1040.88 417.827 1040.88C329.15 1040.88 257.264 967.814 257.264 877.686C257.264 831.096 276.474 789.065 307.283 759.33C282.213 730.542 266.995 692.686 266.995 651.217C266.995 564.96 332.84 494.333 416.23 488.426C417.753 399.65 488.318 328.166 575.146 328.166C598.447 328.166 620.576 333.314 640.515 342.563C665.349 285.064 721.864 244.905 787.607 244.905C823.791 244.905 857.179 257.07 884.028 277.596C912.53 233.79 961.127 204.94 1016.29 204.94C1082.87 204.94 1139.89 246.977 1163.55 306.612C1183.86 296.933 1206.5 291.531 1230.37 291.531C1318.15 291.531 1389.31 364.594 1389.31 454.722C1389.31 461.198 1388.94 467.586 1388.23 473.864C1455.3 486.637 1506.08 547.018 1506.08 619.578C1506.08 701.429 1441.46 767.782 1361.74 767.782Z" fill="#1E0D01"/>
<path fill-rule="evenodd" clip-rule="evenodd" d="M552.8 1027.3C623.774 1056.13 695.231 1097.64 739.416 1127.11L730.724 1140.15C687.158 1111.1 616.646 1070.16 546.905 1041.83C512.025 1027.66 477.623 1016.76 447.048 1012C416.285 1007.2 390.492 1008.79 371.984 1018.33L364.808 1004.4C387.668 992.617 417.425 991.517 449.459 996.508C481.681 1001.53 517.323 1012.89 552.8 1027.3ZM731.584 1410.75C740.36 1408.42 749.691 1405.95 759.848 1403.46L763.569 1418.69C754.263 1420.97 745.409 1423.32 736.869 1425.58C713.856 1431.69 693.128 1437.2 671.995 1438.99C642.293 1441.51 611.574 1436.86 570.437 1418.22L576.904 1403.94C615.997 1421.66 644.039 1425.63 670.67 1423.37C690.338 1421.7 709.143 1416.71 731.584 1410.75Z" fill="white"/>
<path d="M1266.28 1048.98C1045.65 1047.73 820.209 1097.58 735.07 1122.66C778.945 1197.9 794.615 1309.19 750.74 1422.05C894.581 1503.56 1232.82 1630.84 1435.03 1487.89C1471.29 1450.84 1512.79 1391.21 1532.66 1309.19C1562.75 1185.04 1460.58 1093.4 1405.74 1063.09C1375.65 1058.08 1316.42 1049.27 1266.28 1048.98Z" fill="#F7F7F7"/>
<path d="M717.833 1135.2C725.355 1122.66 758.575 1112.73 777.378 1111.69C786.78 1121.09 806.211 1165.29 808.718 1266.87C811.852 1393.83 786.78 1429.89 783.646 1437.72C781.318 1443.55 739.771 1422.05 730.369 1417.35C720.967 1412.64 720.967 1403.24 730.369 1382.86C750.598 1339.02 739.771 1212.01 730.369 1183.79C722.847 1161.22 720.967 1143.56 717.833 1135.2Z" fill="#EDEDED"/>
<path d="M1336.79 1152.44C1226.47 1137.39 1004.59 1208.87 907.438 1246.49C1265.96 1156.2 1476.77 1208.87 1537.36 1246.49C1516.47 1221.41 1447.11 1167.49 1336.79 1152.44Z" fill="#EDEDED"/>
<path d="M1032.8 1337.4C1114.28 1376.07 1319.24 1435.22 1487.22 1362.48C1408.87 1425.18 1208.3 1507.95 1032.8 1337.4Z" fill="#EDEDED"/>
</svg>
